<svg width="101" height="100" viewBox="0 0 101 100" fill="none" xmlns="http://www.w3.org/2000/svg">
<g clip-path="url(#clip0_205_1038)">
<path d="M50.5 100C78.1142 100 100.5 77.6142 100.5 50C100.5 22.3858 78.1142 0 50.5 0C22.8858 0 0.5 22.3858 0.5 50C0.5 77.6142 22.8858 100 50.5 100Z" fill="#F0F0F0"/>
<path d="M50.5004 0C29.0021 0 10.675 13.5688 3.61035 32.6088H97.3906C90.3258 13.5688 71.9986 0 50.5004 0V0Z" fill="#A2001D"/>
<path d="M50.5004 99.9999C71.9986 99.9999 90.3258 86.4312 97.3904 67.3911H3.61035C10.675 86.4312 29.0021 99.9999 50.5004 99.9999Z" fill="#0052B4"/>
</g>
<defs>
<clipPath id="clip0_205_1038">
<rect width="100" height="100" fill="white" transform="translate(0.5)"/>
</clipPath>
</defs>
</svg>
