<svg width="500" height="200" viewBox="0 0 500 200" fill="none" xmlns="http://www.w3.org/2000/svg">
<mask id="mask0_167_1610" style="mask-type:luminance" maskUnits="userSpaceOnUse" x="137" y="8" width="152" height="165">
<path d="M137.428 8H288.916V172.908H137.428V8Z" fill="white"/>
</mask>
<g mask="url(#mask0_167_1610)">
<path d="M212.079 93.5361L136.36 172.421L209.017 90.2105L136.36 8L212.079 86.8849L287.798 8L215.143 90.2105L287.798 172.421L212.079 93.5361Z" fill="#FF6D63"/>
</g>
<mask id="mask1_167_1610" style="mask-type:luminance" maskUnits="userSpaceOnUse" x="12" y="53" width="193" height="81">
<path d="M204.541 53.958H12V133.114H204.541V53.958Z" fill="white"/>
</mask>
<g mask="url(#mask1_167_1610)">
<path d="M52.0863 66.4672H19.8958V88.2369H52.0863V90.9704L19.9831 91.0511V116.406H16.5962V64.0474H52.0863V66.4672Z" fill="#F1CCAE"/>
<path d="M102.27 114.147C102.27 114.304 102.282 114.394 102.309 114.416C102.333 114.441 102.348 114.479 102.348 114.533V116.406H68.7207V64.0474H71.8553V114.147H102.27Z" fill="#F1CCAE"/>
<path d="M154.56 64.0474V66.4672H122.369V88.2369H154.56V90.9704L122.457 91.0511V114.066H154.56V116.406H119.07V64.0474H154.56Z" fill="#F1CCAE"/>
</g>
<mask id="mask2_167_1610" style="mask-type:luminance" maskUnits="userSpaceOnUse" x="252" y="53" width="236" height="81">
<path d="M488 53.958H252.603V133.114H488V53.958Z" fill="white"/>
</mask>
<g mask="url(#mask2_167_1610)">
<path d="M291.767 92.2968C291.825 93.3365 291.854 94.8197 291.854 96.7422C291.854 100.955 291.458 104.324 290.67 106.852C289.879 109.375 288.275 111.414 285.856 112.973C284.277 114.066 282.375 114.913 280.15 115.509C277.923 116.108 275.516 116.406 272.93 116.406C269.545 116.406 266.711 115.926 264.428 114.963C262.15 114.002 259.828 112.193 257.46 109.54L259.828 107.587C261.296 109.254 262.606 110.504 263.759 111.333C264.909 112.164 266.246 112.762 267.767 113.125C269.293 113.491 271.265 113.672 273.687 113.672C278.364 113.672 281.955 112.489 284.459 110.123C286.963 107.757 288.215 104.701 288.215 100.955V85.2703C288.215 77.8315 288.159 70.758 288.05 64.0474H291.767V92.2968Z" fill="#F1CCAE"/>
<path d="M338.148 64.0474C343.498 64.0474 348.411 65.1923 352.89 67.48C357.366 69.7699 360.911 72.891 363.526 76.8457C366.146 80.8026 367.457 85.1717 367.457 89.9576C367.457 94.6898 366.146 99.0858 363.526 103.141C360.911 107.199 357.378 110.426 352.929 112.821C348.477 115.211 343.576 116.406 338.226 116.406C332.816 116.406 327.832 115.196 323.271 112.776C318.71 110.356 315.119 107.118 312.499 103.061C309.878 99.0052 308.568 94.636 308.568 89.9576C308.568 85.221 309.891 80.8608 312.538 76.8815C315.189 72.9022 318.768 69.7699 323.271 67.48C327.779 65.1923 332.738 64.0474 338.148 64.0474ZM337.974 113.986C342.702 113.986 347.067 112.87 351.065 110.634C355.068 108.393 358.239 105.416 360.576 101.698C362.91 97.9767 364.079 93.9862 364.079 89.7246C364.079 85.4585 362.937 81.5688 360.654 78.0556C358.375 74.5423 355.25 71.7729 351.279 69.7474C347.312 67.7175 342.935 66.7002 338.148 66.7002C333.301 66.7002 328.88 67.7175 324.882 69.7474C320.884 71.7729 317.713 74.5558 315.371 78.0914C313.035 81.6293 311.868 85.5302 311.868 89.7963C311.868 94.0624 313.047 98.0574 315.41 101.779C317.778 105.496 320.961 108.461 324.96 110.67C328.963 112.881 333.301 113.986 337.974 113.986Z" fill="#F1CCAE"/>
<path d="M415.112 90.2613C416.405 90.6803 417.669 91.5138 418.907 92.7618C420.149 94.0121 421.177 95.5088 421.993 97.252C422.808 98.9907 423.215 100.72 423.215 102.441C423.215 107.173 422.131 110.684 419.964 112.972C417.795 115.262 414.486 116.405 410.036 116.405H384.096V64.0463L406.232 63.9746C411.808 63.9746 416.087 65.003 419.072 67.0577C422.061 69.1078 423.555 72.5247 423.555 77.3107C423.555 80.5909 422.919 83.2706 421.653 85.3499C420.384 87.4292 418.203 89.0671 415.112 90.2613ZM420.518 77.5437C420.518 74.6892 419.571 72.1931 417.684 70.0601C415.794 67.927 413.132 66.8605 409.697 66.8605L387.23 66.7798V89.1769H401.254C405.31 89.1769 408.632 88.9842 411.22 88.5943C413.814 88.2 416.01 87.1581 417.81 85.4664C419.615 83.777 420.518 81.1354 420.518 77.5437ZM387.23 113.985L406.494 114.065C411.106 114.065 414.539 113.275 416.791 111.69C419.047 110.102 420.178 107.303 420.178 103.293C420.178 100.331 419.203 97.7696 417.257 95.6119C415.316 93.4564 412.458 92.2196 408.687 91.9014H387.23V113.985Z" fill="#F1CCAE"/>
<path d="M445.851 76.532C445.851 78.1452 446.288 79.5926 447.161 80.8698C448.035 82.1424 449.427 83.3255 451.344 84.4189C453.375 85.5616 456.839 86.8343 461.738 88.2369C465.34 89.2765 468.339 90.3049 470.734 91.3199C473.126 92.3372 475.198 93.7555 476.945 95.5771C478.692 97.3942 479.565 99.7065 479.565 102.514C479.565 105.066 478.818 107.407 477.323 109.54C475.834 111.674 473.723 113.354 470.986 114.577C468.254 115.796 465.146 116.406 461.66 116.406H459.457C456.305 116.406 453.037 115.626 449.655 114.066C446.278 112.507 443.291 109.334 440.698 104.548L443.24 103.294C445.375 106.677 447.806 109.267 450.538 111.064C453.275 112.857 456.643 113.753 460.641 113.753C463.285 113.753 465.818 113.287 468.24 112.355C470.666 111.418 472.609 110.141 474.072 108.528C475.54 106.914 476.275 105.147 476.275 103.222C476.275 100.981 475.557 99.1351 474.121 97.6832C472.684 96.2268 470.938 95.055 468.88 94.17C466.823 93.2872 463.907 92.2207 460.136 90.9704C455.4 89.514 451.965 88.2369 449.83 87.1435C447.52 85.9492 445.73 84.56 444.463 82.9759C443.194 81.3874 442.561 79.4492 442.561 77.1593C442.561 74.6633 443.291 72.4138 444.754 70.4107C446.222 68.4098 448.263 66.8504 450.878 65.7323C453.498 64.6098 456.441 64.0474 459.709 64.0474C463.429 64.0474 466.697 64.7778 469.511 66.2342C472.325 67.6928 474.946 70.0589 477.372 73.3324L475.091 74.5871C473.403 72.7118 471.923 71.2307 470.656 70.1418C469.387 69.0484 467.881 68.1656 466.134 67.4889C464.387 66.8078 462.33 66.4672 459.962 66.4672C455.793 66.4672 452.402 67.4172 449.781 69.3173C447.161 71.2173 445.851 73.6237 445.851 76.532Z" fill="#F1CCAE"/>
</g>
<mask id="mask3_167_1610" style="mask-type:luminance" maskUnits="userSpaceOnUse" x="429" y="125" width="57" height="16">
<path d="M485.444 125.084H429.544V140.6H485.444V125.084Z" fill="white"/>
</mask>
<g mask="url(#mask3_167_1610)">
<path d="M430.466 135.688C431.034 135.455 431.74 134.968 432.582 134.223C433.421 133.474 434.144 132.677 434.746 131.828C435.352 130.975 435.639 130.245 435.6 129.637C435.561 129.05 435.362 128.609 435.008 128.318C434.659 128.022 434.188 127.872 433.601 127.872C433.038 127.872 432.582 127.988 432.232 128.221C431.888 128.454 431.594 128.829 431.349 129.346L430.437 128.832C430.83 128.172 431.272 127.692 431.757 127.387C432.247 127.077 432.856 126.921 433.581 126.921C434.28 126.921 434.855 127.064 435.309 127.348C435.767 127.634 436.1 127.974 436.308 128.366C436.522 128.754 436.641 129.111 436.667 129.433C436.738 130.177 436.485 131.001 435.91 131.906C435.34 132.812 434.673 133.632 433.911 134.369C433.154 135.101 432.587 135.552 432.213 135.726L436.658 135.717V136.803H430.437L430.466 135.688Z" fill="#F1CCAE"/>
<path d="M456.225 131.382V131.518C456.225 132.871 455.851 133.995 455.109 134.892C454.364 135.785 453.326 136.393 451.994 136.716C451.742 136.774 451.433 136.803 451.072 136.803C450.191 136.803 449.378 136.585 448.636 136.143C447.891 135.705 447.297 135.106 446.85 134.349C446.409 133.588 446.19 132.757 446.19 131.857C446.19 130.934 446.416 130.097 446.87 129.346C447.321 128.589 447.94 127.998 448.723 127.571C449.512 127.14 450.393 126.921 451.363 126.921C451.919 126.921 452.452 127.004 452.964 127.164C453.481 127.319 453.947 127.537 454.362 127.814C454.634 128.015 454.857 128.216 455.031 128.415C455.211 128.616 455.439 128.89 455.711 129.239C455.497 129.389 455.228 129.547 454.905 129.714C454.27 128.997 453.712 128.509 453.226 128.25C452.746 127.993 452.19 127.862 451.557 127.862C450.715 127.862 449.961 128.037 449.296 128.386C448.636 128.73 448.122 129.208 447.753 129.821C447.389 130.437 447.209 131.125 447.209 131.886C447.209 132.611 447.379 133.278 447.724 133.884C448.073 134.492 448.541 134.975 449.131 135.329C449.725 135.678 450.383 135.853 451.101 135.853C451.669 135.853 452.212 135.746 452.731 135.533C453.248 135.314 453.704 135.004 454.1 134.602C454.364 134.33 454.585 134.008 454.76 133.632C454.934 133.259 455.08 132.798 455.196 132.255L451.072 132.265V131.372L456.225 131.382Z" fill="#F1CCAE"/>
<path d="M470.864 126.921C471.795 126.921 472.649 127.142 473.426 127.581C474.207 128.015 474.826 128.606 475.279 129.355C475.738 130.1 475.968 130.924 475.968 131.828C475.968 132.72 475.738 133.549 475.279 134.311C474.826 135.074 474.212 135.683 473.435 136.134C472.659 136.58 471.808 136.803 470.883 136.803C469.937 136.803 469.068 136.577 468.273 136.124C467.482 135.666 466.858 135.055 466.4 134.291C465.946 133.53 465.72 132.708 465.72 131.828C465.72 130.936 465.948 130.117 466.409 129.365C466.875 128.609 467.499 128.015 468.282 127.581C469.063 127.142 469.925 126.921 470.864 126.921ZM470.835 135.911C471.577 135.911 472.264 135.724 472.892 135.348C473.525 134.968 474.027 134.461 474.396 133.826C474.765 133.186 474.949 132.505 474.949 131.78C474.949 131.057 474.77 130.398 474.416 129.801C474.059 129.2 473.566 128.73 472.941 128.386C472.312 128.037 471.621 127.862 470.864 127.862C470.099 127.862 469.401 128.037 468.767 128.386C468.139 128.73 467.642 129.205 467.273 129.811C466.904 130.412 466.72 131.077 466.72 131.799C466.72 132.524 466.904 133.203 467.273 133.835C467.647 134.463 468.151 134.968 468.787 135.348C469.42 135.724 470.102 135.911 470.835 135.911Z" fill="#F1CCAE"/>
</g>
</svg>
