<svg width="500" height="200" viewBox="0 0 500 200" fill="none" xmlns="http://www.w3.org/2000/svg">
<mask id="mask0_167_1609" style="mask-type:luminance" maskUnits="userSpaceOnUse" x="137" y="17" width="152" height="166">
<path d="M137.428 17.5459H288.916V182.454H137.428V17.5459Z" fill="white"/>
</mask>
<g mask="url(#mask0_167_1609)">
<path d="M212.079 103.082L136.36 181.967L209.017 99.7564L136.36 17.5459L212.079 96.4308L287.798 17.5459L215.143 99.7564L287.798 181.967L212.079 103.082Z" fill="#FF6D63"/>
</g>
<mask id="mask1_167_1609" style="mask-type:luminance" maskUnits="userSpaceOnUse" x="12" y="63" width="193" height="80">
<path d="M204.541 63.5039H12V142.66H204.541V63.5039Z" fill="white"/>
</mask>
<g mask="url(#mask1_167_1609)">
<path d="M52.0863 76.0131H19.8958V97.7828H52.0863V100.516L19.9831 100.597V125.952H16.5962V73.5933H52.0863V76.0131Z" fill="#263236"/>
<path d="M102.27 123.693C102.27 123.85 102.282 123.94 102.309 123.962C102.333 123.987 102.348 124.025 102.348 124.078V125.952H68.7207V73.5933H71.8553V123.693H102.27Z" fill="#263236"/>
<path d="M154.56 73.5933V76.0131H122.369V97.7828H154.56V100.516L122.457 100.597V123.612H154.56V125.952H119.07V73.5933H154.56Z" fill="#263236"/>
</g>
<mask id="mask2_167_1609" style="mask-type:luminance" maskUnits="userSpaceOnUse" x="252" y="63" width="236" height="80">
<path d="M488 63.5039H252.603V142.66H488V63.5039Z" fill="white"/>
</mask>
<g mask="url(#mask2_167_1609)">
<path d="M291.767 101.843C291.825 102.882 291.854 104.366 291.854 106.288C291.854 110.5 291.458 113.87 290.67 116.398C289.879 118.921 288.275 120.96 285.856 122.519C284.277 123.612 282.375 124.459 280.15 125.055C277.923 125.654 275.516 125.952 272.93 125.952C269.545 125.952 266.711 125.472 264.428 124.509C262.15 123.547 259.828 121.739 257.46 119.086L259.828 117.133C261.296 118.8 262.606 120.05 263.759 120.879C264.909 121.71 266.246 122.308 267.767 122.671C269.293 123.037 271.265 123.218 273.687 123.218C278.364 123.218 281.955 122.035 284.459 119.669C286.963 117.303 288.215 114.247 288.215 110.5V94.8162C288.215 87.3774 288.159 80.3039 288.05 73.5933H291.767V101.843Z" fill="#263236"/>
<path d="M338.148 73.5933C343.498 73.5933 348.411 74.7382 352.89 77.0259C357.366 79.3158 360.911 82.4369 363.526 86.3916C366.146 90.3485 367.457 94.7176 367.457 99.5035C367.457 104.236 366.146 108.632 363.526 112.687C360.911 116.745 357.378 119.971 352.929 122.367C348.477 124.757 343.576 125.952 338.226 125.952C332.816 125.952 327.832 124.742 323.271 122.322C318.71 119.902 315.119 116.664 312.499 112.607C309.878 108.551 308.568 104.182 308.568 99.5035C308.568 94.7669 309.891 90.4067 312.538 86.4274C315.189 82.4481 318.768 79.3158 323.271 77.0259C327.779 74.7382 332.738 73.5933 338.148 73.5933ZM337.974 123.532C342.702 123.532 347.067 122.416 351.065 120.18C355.068 117.939 358.239 114.961 360.576 111.244C362.91 107.523 364.079 103.532 364.079 99.2705C364.079 95.0044 362.937 91.1147 360.654 87.6015C358.375 84.0882 355.25 81.3188 351.279 79.2933C347.312 77.2634 342.935 76.2461 338.148 76.2461C333.301 76.2461 328.88 77.2634 324.882 79.2933C320.884 81.3188 317.713 84.1017 315.371 87.6373C313.035 91.1752 311.868 95.0761 311.868 99.3422C311.868 103.608 313.047 107.603 315.41 111.325C317.778 115.042 320.961 118.006 324.96 120.216C328.963 122.427 333.301 123.532 337.974 123.532Z" fill="#263236"/>
<path d="M415.112 99.8072C416.405 100.226 417.669 101.06 418.907 102.308C420.149 103.558 421.177 105.055 421.993 106.798C422.808 108.537 423.215 110.266 423.215 111.987C423.215 116.719 422.131 120.23 419.964 122.518C417.795 124.808 414.486 125.951 410.036 125.951H384.096V73.5922L406.232 73.5205C411.808 73.5205 416.087 74.5489 419.072 76.6036C422.061 78.6537 423.555 82.0706 423.555 86.8566C423.555 90.1368 422.919 92.8165 421.653 94.8958C420.384 96.9751 418.203 98.613 415.112 99.8072ZM420.518 87.0896C420.518 84.2351 419.571 81.739 417.684 79.606C415.794 77.4729 413.132 76.4064 409.697 76.4064L387.23 76.3257V98.7228H401.254C405.31 98.7228 408.632 98.5301 411.22 98.1402C413.814 97.7459 416.01 96.704 417.81 95.0123C419.615 93.3229 420.518 90.6813 420.518 87.0896ZM387.23 123.531L406.494 123.611C411.106 123.611 414.539 122.82 416.791 121.236C419.047 119.648 420.178 116.849 420.178 112.839C420.178 109.876 419.203 107.315 417.257 105.158C415.316 103.002 412.458 101.765 408.687 101.447H387.23V123.531Z" fill="#263236"/>
<path d="M445.851 86.0779C445.851 87.6911 446.288 89.1385 447.161 90.4157C448.035 91.6883 449.427 92.8714 451.344 93.9648C453.375 95.1075 456.839 96.3801 461.738 97.7828C465.34 98.8224 468.339 99.8508 470.734 100.866C473.126 101.883 475.198 103.301 476.945 105.123C478.692 106.94 479.565 109.252 479.565 112.06C479.565 114.612 478.818 116.953 477.323 119.086C475.834 121.219 473.723 122.9 470.986 124.123C468.254 125.342 465.146 125.952 461.66 125.952H459.457C456.305 125.952 453.037 125.172 449.655 123.612C446.278 122.053 443.291 118.88 440.698 114.094L443.24 112.84C445.375 116.223 447.806 118.813 450.538 120.61C453.275 122.402 456.643 123.299 460.641 123.299C463.285 123.299 465.818 122.833 468.24 121.901C470.666 120.964 472.609 119.687 474.072 118.074C475.54 116.46 476.275 114.693 476.275 112.768C476.275 110.527 475.557 108.681 474.121 107.229C472.684 105.773 470.938 104.601 468.88 103.716C466.823 102.833 463.907 101.767 460.136 100.516C455.4 99.0599 451.965 97.7828 449.83 96.6894C447.52 95.4951 445.73 94.1059 444.463 92.5218C443.194 90.9333 442.561 88.9951 442.561 86.7052C442.561 84.2092 443.291 81.9597 444.754 79.9566C446.222 77.9557 448.263 76.3963 450.878 75.2782C453.498 74.1557 456.441 73.5933 459.709 73.5933C463.429 73.5933 466.697 74.3237 469.511 75.7801C472.325 77.2387 474.946 79.6048 477.372 82.8783L475.091 84.133C473.403 82.2577 471.923 80.7766 470.656 79.6877C469.387 78.5943 467.881 77.7115 466.134 77.0348C464.387 76.3537 462.33 76.0131 459.962 76.0131C455.793 76.0131 452.402 76.9631 449.781 78.8631C447.161 80.7632 445.851 83.1696 445.851 86.0779Z" fill="#263236"/>
</g>
<mask id="mask3_167_1609" style="mask-type:luminance" maskUnits="userSpaceOnUse" x="429" y="134" width="57" height="17">
<path d="M485.444 134.63H429.544V150.145H485.444V134.63Z" fill="white"/>
</mask>
<g mask="url(#mask3_167_1609)">
<path d="M430.466 145.234C431.034 145.001 431.74 144.514 432.582 143.769C433.421 143.02 434.144 142.223 434.746 141.374C435.352 140.521 435.639 139.791 435.6 139.183C435.561 138.596 435.362 138.155 435.008 137.864C434.659 137.568 434.188 137.418 433.601 137.418C433.038 137.418 432.582 137.534 432.232 137.767C431.888 137.999 431.594 138.375 431.349 138.892L430.437 138.378C430.83 137.718 431.272 137.238 431.757 136.933C432.247 136.622 432.856 136.467 433.581 136.467C434.28 136.467 434.855 136.61 435.309 136.894C435.767 137.18 436.1 137.519 436.308 137.912C436.522 138.3 436.641 138.656 436.667 138.979C436.738 139.723 436.485 140.547 435.91 141.452C435.34 142.358 434.673 143.178 433.911 143.915C433.154 144.647 432.587 145.098 432.213 145.272L436.658 145.263V146.349H430.437L430.466 145.234Z" fill="#263236"/>
<path d="M456.225 140.928V141.064C456.225 142.417 455.851 143.541 455.109 144.438C454.364 145.331 453.326 145.939 451.994 146.261C451.742 146.32 451.433 146.349 451.072 146.349C450.191 146.349 449.378 146.131 448.636 145.689C447.891 145.251 447.297 144.652 446.85 143.895C446.409 143.134 446.19 142.303 446.19 141.403C446.19 140.48 446.416 139.643 446.87 138.892C447.321 138.135 447.94 137.544 448.723 137.117C449.512 136.685 450.393 136.467 451.363 136.467C451.919 136.467 452.452 136.55 452.964 136.71C453.481 136.865 453.947 137.083 454.362 137.359C454.634 137.561 454.857 137.762 455.031 137.961C455.211 138.162 455.439 138.436 455.711 138.785C455.497 138.935 455.228 139.093 454.905 139.26C454.27 138.542 453.712 138.055 453.226 137.796C452.746 137.539 452.19 137.408 451.557 137.408C450.715 137.408 449.961 137.582 449.296 137.932C448.636 138.276 448.122 138.753 447.753 139.367C447.389 139.983 447.209 140.671 447.209 141.432C447.209 142.157 447.379 142.824 447.724 143.43C448.073 144.038 448.541 144.521 449.131 144.875C449.725 145.224 450.383 145.398 451.101 145.398C451.669 145.398 452.212 145.292 452.731 145.078C453.248 144.86 453.704 144.55 454.1 144.147C454.364 143.876 454.585 143.554 454.76 143.178C454.934 142.804 455.08 142.344 455.196 141.801L451.072 141.81V140.918L456.225 140.928Z" fill="#263236"/>
<path d="M470.864 136.467C471.795 136.467 472.649 136.688 473.426 137.127C474.207 137.561 474.826 138.152 475.279 138.901C475.738 139.646 475.968 140.47 475.968 141.374C475.968 142.266 475.738 143.095 475.279 143.857C474.826 144.62 474.212 145.229 473.435 145.68C472.659 146.126 471.808 146.349 470.883 146.349C469.937 146.349 469.068 146.123 468.273 145.67C467.482 145.212 466.858 144.601 466.4 143.837C465.946 143.076 465.72 142.254 465.72 141.374C465.72 140.482 465.948 139.663 466.409 138.911C466.875 138.155 467.499 137.561 468.282 137.127C469.063 136.688 469.925 136.467 470.864 136.467ZM470.835 145.457C471.577 145.457 472.264 145.27 472.892 144.894C473.525 144.514 474.027 144.007 474.396 143.372C474.765 142.732 474.949 142.05 474.949 141.326C474.949 140.603 474.77 139.944 474.416 139.347C474.059 138.746 473.566 138.276 472.941 137.932C472.312 137.582 471.621 137.408 470.864 137.408C470.099 137.408 469.401 137.582 468.767 137.932C468.139 138.276 467.642 138.751 467.273 139.357C466.904 139.958 466.72 140.623 466.72 141.345C466.72 142.07 466.904 142.749 467.273 143.381C467.647 144.009 468.151 144.514 468.787 144.894C469.42 145.27 470.102 145.457 470.835 145.457Z" fill="#263236"/>
</g>
</svg>
